:SAMPLES-PER-SECOND 30
:FULLY-SPECIFIED
:DEGREES
894
root  -26.31 38.0544 7.7861 5.83323 -78.5888 -10.6147
RightUpLeg  -21.577 -9.15713 8.55387
RightLeg  21.8066 -4.58469 -2.11722
RightFoot  0.151907 0.829885 -8.22012
RightToes  6.35927e-011 1.30204e-014 -6.03759e-014
Spine  3.79625 -2.23729 9.49498
Spine1  12.587 -2.31478 1.39905
HEad  -14.6949 -5.73472 -3.13775
LeftShoulder1  -0.221716 4.08935 -31.7386
LeftArm  1.60885 3.90576 -45.8766
LeftForeArm  24.614 -10.9703 -9.11558
LeftHand  0.0489937 8.84979 3.11905
RightShoulder  -0.508672 -4.97951 27.6366
RightArm  12.5535 -4.66702 45.966
RightForeArm  8.31176 8.60629 6.82182
RightHand  -0.229279 1.23974 -4.14388
LeftUpLeg  14.0163 12.3525 0.498773
LeftLeg  33.2109 -10.4726 -6.97549
LeftFoot  -10.7582 0.138444 -7.32578
LeftToes  -7.16024e-010 4.79583e-011 -5.98286e-011
895
root  -27.3688 38.0858 8.00137 10.0759 -78.2749 -14.6255
RightUpLeg  -21.148 -9.23132 9.27559
RightLeg  23.8405 -4.78685 -2.35651
RightFoot  -1.74575 0.756854 -9.10803
RightToes  6.35927e-011 1.30204e-014 -6.03759e-014
Spine  4.09312 -2.46793 10.6346
Spine1  12.5462 -2.38807 2.02418
HEad  -14.475 -5.78149 -2.37095
LeftShoulder1  -0.255312 4.17482 -31.9169
LeftArm  2.96238 4.30684 -45.5857
LeftForeArm  28.1089 -10.3855 -9.68456
LeftHand  -0.0113525 9.23723 1.11384
RightShoulder  -0.556592 -5.10936 27.8822
RightArm  11.248 -5.31922 45.7439
RightForeArm  7.12848 9.14847 6.29784
RightHand  -0.261345 1.7216 -4.42889
LeftUpLeg  8.40959 10.6873 2.15209
LeftLeg  43.9443 -10.7042 -10.4571
LeftFoot  -1.36899 1.19523 -13.6647
LeftToes  -7.16024e-010 4.79583e-011 -5.98286e-011
896
root  -28.3427 38.0729 8.20076 14.1148 -78.1743 -18.8945
RightUpLeg  -20.1943 -9.0635 9.91977
RightLeg  25.7101 -5.01226 -2.69808
RightFoot  -4.12806 0.520552 -8.65328
RightToes  6.35927e-011 1.30204e-014 -6.03759e-014
Spine  4.59778 -2.60055 12.4181
Spine1  12.9956 -1.98206 1.61987
HEad  -14.5496 -6.16423 -1.29167
LeftShoulder1  -0.298696 4.28508 -32.1038
LeftArm  4.27728 4.31259 -45.1976
LeftForeArm  30.4818 -10.9584 -9.64631
LeftHand  -0.0624091 9.30514 -0.340082
RightShoulder  -0.591063 -5.20348 28.0244
RightArm  11.0657 -5.71071 45.8804
RightForeArm  5.27844 10.5343 6.03471
RightHand  -0.295624 2.322 -4.64645
LeftUpLeg  2.63016 8.48633 3.42247
LeftLeg  53.661 -8.90069 -12.2784
LeftFoot  5.50145 2.37724 -16.3534
LeftToes  -7.16024e-010 4.79583e-011 -5.98286e-011
897
root  -29.3366 38.1474 8.40557 15.3797 -78.8348 -20.7172
RightUpLeg  -18.2402 -8.29047 9.81246
RightLeg  26.7442 -5.20971 -2.95704
RightFoot  -6.31508 0.311518 -8.07343
RightToes  6.35927e-011 1.30204e-014 -6.03759e-014
Spine  5.11111 -2.55539 13.3446
Spine1  13.5693 -1.40102 0.948015
HEad  -14.5165 -6.43033 -0.695034
LeftShoulder1  -0.297808 4.28225 -32.125
LeftArm  5.20436 4.86463 -44.949
LeftForeArm  29.501 -12.2476 -9.11127
LeftHand  -0.0607021 9.24418 -0.287139
RightShoulder  -0.566933 -5.14497 27.7703
RightArm  12.5602 -5.45051 46.462
RightForeArm  3.94501 12.106 6.11329
RightHand  -0.309837 2.49808 -4.76487
LeftUpLeg  -2.4008 6.66922 3.91888
LeftLeg  60.9391 -6.34687 -11.6201
LeftFoot  6.99802 2.34962 -14.7218
LeftToes  -7.16024e-010 4.79583e-011 -5.98286e-011
898
root  -30.4012 38.3618 8.61097 13.3105 -80.1881 -19.2127
RightUpLeg  -15.5874 -7.09016 8.88805
RightLeg  26.7929 -5.34782 -2.97847
RightFoot  -7.76008 0.203914 -8.18729
RightToes  6.35927e-011 1.30204e-014 -6.03759e-014
Spine  5.42436 -2.33288 13.0931
Spine1  13.8176 -0.848992 0.368266
HEad  -13.8449 -6.46268 -0.775921
LeftShoulder1  -0.264574 4.19671 -32.0557
LeftArm  6.13064 5.88904 -44.5855
LeftForeArm  25.64 -13.5287 -8.54727
LeftHand  -0.0154043 9.10897 1.0323
RightShoulder  -0.530605 -5.05716 27.3574
RightArm  15.4666 -4.89694 47.1441
RightForeArm  3.39422 14.0415 6.16124
RightHand  -0.306772 2.50185 -4.7178
LeftUpLeg  -6.84794 5.09273 3.55737
LeftLeg  65.1813 -3.80221 -8.30962
LeftFoot  5.48161 1.5294 -10.5206
LeftToes  -7.16024e-010 4.79583e-011 -5.98286e-011
899
root  -31.4957 38.6127 8.80989 9.92087 -81.8883 -16.2817
RightUpLeg  -12.8099 -5.97855 7.75979
RightLeg  26.3863 -5.07468 -2.74213
RightFoot  -8.91218 0.117817 -8.35279
RightToes  6.35927e-011 1.30204e-014 -6.03759e-014
Spine  5.63875 -1.99717 12.6791
Spine1  13.6066 -0.217506 -0.444041
HEad  -12.5878 -6.35301 -1.23618
LeftShoulder1  -0.265083 4.19784 -32.0643
LeftArm  6.69051 6.72317 -43.9603
LeftForeArm  21.7729 -14.3793 -8.15681
LeftHand  0.0340768 8.87025 2.60306
RightShoulder  -0.526544 -5.05613 27.1159
RightArm  18.8404 -4.55164 47.5572
RightForeArm  2.67045 16.675 5.7683
RightHand  -0.302037 2.71641 -4.54096
LeftUpLeg  -10.8934 3.33599 2.94228
LeftLeg  66.4853 -1.8838 -4.10479
LeftFoot  3.84042 0.76842 -5.95198
LeftToes  -7.16024e-010 4.79583e-011 -5.98286e-011
900
root  -32.5887 38.8185 8.99859 6.67462 -83.7499 -13.4746
RightUpLeg  -9.96981 -5.39433 6.76345
RightLeg  25.7498 -4.09566 -2.21428
RightFoot  -10.3502 0.000929244 -8.11276
RightToes  6.35927e-011 1.30204e-014 -6.03759e-014
Spine  5.91853 -1.63204 12.5309
Spine1  13.1048 0.481203 -1.57859
HEad  -11.2615 -6.09634 -1.74928
LeftShoulder1  -0.319285 4.33943 -32.0793
LeftArm  6.38684 7.19753 -43.3374
LeftForeArm  19.6437 -14.9485 -7.77702
LeftHand  0.0635208 8.70115 3.67071
RightShoulder  -0.538154 -5.09359 27.0579
RightArm  21.3598 -4.46866 47.616
RightForeArm  1.4575 19.7937 5.11556
RightHand  -0.301709 2.97119 -4.4151
LeftUpLeg  -14.2979 1.46656 2.66839
LeftLeg  65.2349 -0.903867 -1.48897
LeftFoot  2.27112 0.305873 -2.67773
LeftToes  -7.16024e-010 4.79583e-011 -5.98286e-011
